<?xml version="1.0" encoding="UTF-8" standalone="no"?>
<svg width="91px" height="89px" viewBox="0 0 91 89" version="1.1" xmlns="http://www.w3.org/2000/svg" xmlns:xlink="http://www.w3.org/1999/xlink" xmlns:sketch="http://www.bohemiancoding.com/sketch/ns">
    <!-- Generator: Sketch 3.4.2 (15857) - http://www.bohemiancoding.com/sketch -->
    <title>Shape</title>
    <desc>Created with Sketch.</desc>
    <defs></defs>
    <g id="Page-1" stroke="none" stroke-width="1" fill="none" fill-rule="evenodd" sketch:type="MSPage">
        <g id="noun_28118_cc" sketch:type="MSLayerGroup" transform="translate(-5.000000, 0.000000)" fill="#FFFFFF">
            <g id="Group" sketch:type="MSShapeGroup">
                <path d="M61.237,88.527 C60.244,88.527 59.268,88.111 58.577,87.332 L52.011,79.94 C51.064,79.98 50.107,79.98 49.176,79.94 L42.611,87.332 C41.555,88.522 39.837,88.866 38.406,88.172 L31.55,84.862 C31.471,84.831 31.392,84.797 31.316,84.76 L24.346,81.395 C22.916,80.704 22.116,79.15 22.388,77.585 L24.073,67.863 C23.444,67.139 22.85,66.393 22.294,65.63 L12.437,65.11 C10.849,65.027 9.51,63.898 9.157,62.349 L7.467,54.927 C7.442,54.846 7.42,54.763 7.402,54.681 L5.683,47.134 C5.331,45.586 6.047,43.992 7.438,43.228 L16.099,38.468 C16.272,37.532 16.482,36.609 16.729,35.703 L10.991,27.669 C10.069,26.377 10.114,24.631 11.102,23.389 L15.921,17.331 C15.957,17.286 15.992,17.244 16.029,17.201 L16.06,17.166 L20.84,11.174 C21.831,9.932 23.53,9.497 24.993,10.111 L34.093,13.92 C34.963,13.457 35.856,13.028 36.768,12.637 L39.368,3.467 C39.802,1.937 41.199,0.881 42.789,0.881 L58.4,0.881 C59.991,0.881 61.389,1.938 61.821,3.468 L64.42,12.645 C65.325,13.032 66.215,13.458 67.084,13.92 L76.183,10.111 C77.648,9.497 79.344,9.931 80.336,11.174 L85.159,17.217 C85.192,17.254 85.223,17.292 85.254,17.331 L90.073,23.389 C91.06,24.63 91.106,26.377 90.184,27.668 L84.458,35.691 C84.706,36.603 84.917,37.534 85.089,38.478 L93.743,43.213 C95.139,43.977 95.858,45.574 95.503,47.126 L92.033,62.35 C91.68,63.9 90.34,65.028 88.753,65.111 L78.888,65.632 C78.324,66.398 77.732,67.139 77.116,67.851 L78.801,77.587 C79.072,79.151 78.273,80.706 76.843,81.396 L69.873,84.761 C69.797,84.798 69.718,84.832 69.639,84.863 L69.638,84.864 L62.783,88.173 C62.288,88.412 61.76,88.527 61.237,88.527 L61.237,88.527 Z M53.509,72.714 C54.52,72.714 55.489,73.145 56.168,73.909 L62.11,80.601 L66.66,78.404 C66.736,78.366 66.815,78.332 66.894,78.301 L66.895,78.3 L71.334,76.158 L69.81,67.347 C69.617,66.23 69.967,65.087 70.755,64.271 C71.939,63.046 73.03,61.679 74.002,60.212 C74.623,59.271 75.654,58.682 76.78,58.622 L85.694,58.152 L86.819,53.202 C86.825,53.167 86.833,53.134 86.84,53.1 L87.97,48.164 L80.139,43.879 C79.14,43.332 78.462,42.34 78.318,41.21 C78.095,39.468 77.711,37.776 77.176,36.183 C76.814,35.101 76.99,33.913 77.653,32.985 L82.837,25.721 L79.699,21.779 C79.667,21.743 79.636,21.707 79.607,21.669 L76.451,17.713 L68.221,21.158 C67.175,21.595 65.982,21.509 65.011,20.923 C63.505,20.015 61.904,19.249 60.255,18.646 C59.183,18.255 58.365,17.373 58.054,16.276 L55.709,7.998 L45.478,7.998 L43.134,16.265 C42.824,17.357 42.01,18.238 40.944,18.63 C39.271,19.247 37.664,20.019 36.166,20.923 C35.194,21.508 34.001,21.596 32.955,21.158 L24.724,17.713 L21.569,21.669 C21.534,21.712 21.5,21.753 21.464,21.795 L21.435,21.828 L18.337,25.72 L23.533,32.996 C24.196,33.924 24.372,35.113 24.01,36.195 C23.475,37.787 23.091,39.471 22.867,41.203 C22.722,42.329 22.048,43.317 21.053,43.864 L13.212,48.172 L14.306,52.978 C14.331,53.059 14.353,53.142 14.371,53.224 L15.492,58.152 L24.418,58.622 C25.56,58.683 26.605,59.289 27.223,60.251 C28.126,61.658 29.204,63.013 30.43,64.281 C31.218,65.097 31.57,66.241 31.376,67.359 L29.851,76.157 L34.291,78.3 C34.37,78.331 34.449,78.365 34.525,78.403 L39.075,80.6 L45.017,73.908 C45.774,73.056 46.889,72.617 48.03,72.731 C49.723,72.9 51.473,72.898 53.15,72.731 C53.273,72.72 53.392,72.714 53.509,72.714 L53.509,72.714 Z M50.589,61.102 C41.65,61.102 34.378,53.83 34.378,44.891 C34.378,35.952 41.65,28.68 50.589,28.68 C59.534,28.68 66.812,35.952 66.812,44.891 C66.812,53.83 59.534,61.102 50.589,61.102 L50.589,61.102 Z M50.589,35.792 C45.572,35.792 41.49,39.874 41.49,44.891 C41.49,49.908 45.572,53.99 50.589,53.99 C55.613,53.99 59.7,49.908 59.7,44.891 C59.7,39.874 55.613,35.792 50.589,35.792 L50.589,35.792 Z" id="Shape"></path>
            </g>
        </g>
    </g>
</svg>
