<?xml version="1.0" encoding="UTF-8" standalone="no"?>
<svg width="26px" height="71px" viewBox="0 0 26 71" version="1.1" xmlns="http://www.w3.org/2000/svg" xmlns:xlink="http://www.w3.org/1999/xlink" xmlns:sketch="http://www.bohemiancoding.com/sketch/ns">
    <!-- Generator: Sketch 3.4.2 (15857) - http://www.bohemiancoding.com/sketch -->
    <title>Shape</title>
    <desc>Created with Sketch.</desc>
    <defs></defs>
    <g id="Page-1" stroke="none" stroke-width="1" fill="none" fill-rule="evenodd" sketch:type="MSPage">
        <path d="M11,61 C11,59.896 11.896,59 13,59 L13,59 C14.104,59 15,59.896 15,61 L15,69 C15,70.104 14.104,71 13,71 L13,71 C11.896,71 11,70.104 11,69 L11,61 L11,61 Z M0.063,45.063 C-0.278,48.195 0.751,51.448 3.152,53.849 C5.552,56.247 8.803,57.277 11.936,56.936 C12.276,53.806 11.248,50.551 8.848,48.152 C6.447,45.752 3.195,44.725 0.063,45.063 L0.063,45.063 Z M17.152,48.152 C14.752,50.551 13.722,53.806 14.063,56.936 C17.196,57.277 20.447,56.248 22.847,53.849 C25.248,51.448 26.277,48.195 25.936,45.063 C22.805,44.725 19.553,45.752 17.152,48.152 L17.152,48.152 Z M0.063,34.063 C-0.278,37.195 0.751,40.448 3.152,42.849 C5.552,45.247 8.803,46.277 11.936,45.936 C12.276,42.806 11.248,39.551 8.848,37.152 C6.447,34.752 3.195,33.725 0.063,34.063 L0.063,34.063 Z M17.152,37.152 C14.752,39.551 13.722,42.806 14.063,45.936 C17.196,46.277 20.447,45.248 22.847,42.849 C25.248,40.448 26.277,37.195 25.936,34.063 C22.805,33.725 19.553,34.752 17.152,37.152 L17.152,37.152 Z M0.063,23.063 C-0.278,26.195 0.751,29.448 3.152,31.849 C5.552,34.247 8.803,35.277 11.936,34.936 C12.276,31.806 11.248,28.551 8.848,26.152 C6.447,23.752 3.195,22.725 0.063,23.063 L0.063,23.063 Z M17.152,26.152 C14.752,28.551 13.722,31.806 14.063,34.936 C17.196,35.277 20.447,34.248 22.847,31.849 C25.248,29.448 26.277,26.195 25.936,23.063 C22.805,22.725 19.553,23.752 17.152,26.152 L17.152,26.152 Z M0.063,12.063 C-0.278,15.195 0.751,18.448 3.152,20.849 C5.552,23.247 8.803,24.277 11.936,23.936 C12.276,20.806 11.248,17.551 8.848,15.152 C6.447,12.752 3.195,11.725 0.063,12.063 L0.063,12.063 Z M17.152,15.152 C14.752,17.551 13.722,20.806 14.063,23.936 C17.196,24.277 20.447,23.248 22.847,20.849 C25.248,18.448 26.277,15.195 25.936,12.063 C22.805,11.725 19.553,12.752 17.152,15.152 L17.152,15.152 Z M13,0 C10.545,1.974 8.972,5.001 8.972,8.397 C8.974,11.79 10.544,14.816 13,16.791 C15.454,14.819 17.028,11.79 17.028,8.396 C17.027,5 15.454,1.975 13,0 L13,0 Z" id="Shape" fill="rgba(0, 0, 0, .1)" sketch:type="MSShapeGroup"></path>
    </g>
</svg>
